<?xml version="1.0" encoding="UTF-8"?>
<svg width="119px" height="19px" viewBox="0 0 119 19" version="1.1" xmlns="http://www.w3.org/2000/svg" xmlns:xlink="http://www.w3.org/1999/xlink">
    <title>Atoms / Icons / Dexcom Logo Gray@2x</title>
    <g id="Iconography" stroke="none" stroke-width="1" fill="none" fill-rule="evenodd">
        <g transform="translate(-84.000000, -85.000000)" fill="#A7B2BE" id="Atoms-/-Icons-/-Dexcom-Logo-Gray">
            <g transform="translate(84.000000, 85.000000)">
                <path d="M23.9361124,7.942725 L23.9361124,8.23431522 L24.2160014,8.23431522 C27.079363,8.23431522 27.8896901,7.78870761 29.3566948,6.99094565 L29.5145908,6.90471196 L29.5489496,6.79080326 C29.5616894,6.75029348 29.8624254,6.07526413 29.8624254,5.49408913 C29.8624254,3.52354891 28.7980749,2.74463804 27.2720039,2.74463804 C24.2831748,2.74463804 23.9361124,5.32483043 23.9361124,7.942725 L23.9361124,7.942725 Z M18.9672129,9.21296739 C18.9672129,3.14692826 21.6356173,0.200944565 27.1214429,0.200944565 C32.3165699,0.200944565 34.159205,3.51111522 34.159205,6.35081087 C34.159205,6.99696196 34.0275606,7.65675 33.9704247,7.90301739 C31.321709,9.65135543 28.3039259,10.4398924 24.2160014,10.4398924 L23.9361124,10.4398924 L23.9361124,10.7262685 C23.9361124,14.4896674 25.0359798,15.5722011 27.4955291,15.5722011 C29.4856368,15.5722011 30.6700501,15.1017261 31.0642111,14.6857989 C31.3475746,14.8333989 33.1512183,15.7663272 33.7036614,16.055912 C32.9373445,16.6779978 30.6542219,18.2294022 27.1214429,18.2294022 C21.4074595,18.2294022 18.9672129,15.5365043 18.9672129,9.21296739 L18.9672129,9.21296739 Z" id="Fill-1" fill-rule="nonzero"></path>
                <path d="M53.478113,0.587191304 C51.6883673,4.96024239 47.1989467,8.87966413 47.1530063,8.91897065 L46.8912618,9.14478261 L47.1618856,9.36578152 C47.2155471,9.40909891 52.389055,13.6509946 53.5290721,17.8419522 L48.8566621,17.8419522 C47.9536821,15.0788641 45.1764105,12.2668435 45.0571199,12.1489239 L44.8667953,11.9535946 L44.6733823,12.1505283 C44.556794,12.2712554 41.8532587,15.0800674 40.9495066,17.8419522 L36.2751663,17.8419522 C37.347624,13.6521978 42.5199738,9.40909891 42.5774958,9.36578152 L42.8454172,9.14478261 L42.57904,8.91897065 C42.5350299,8.87966413 38.0432931,4.96024239 36.3268975,0.587191304 L41.0977513,0.587191304 C42.1837209,4.02891848 44.5915389,6.06002283 44.6957734,6.1470587 L44.8667953,6.2882413 L45.0393614,6.14585543 C45.1424378,6.06002283 47.5483255,4.02891848 48.7091895,0.587191304 L53.478113,0.587191304" id="Fill-2"></path>
                <path d="M56.0299291,9.21296739 C56.0299291,3.31698913 59.0616102,0.200944565 64.7906497,0.200944565 C68.1253831,0.200944565 70.2193393,1.71705326 70.933925,2.33031522 C70.3980823,2.61308152 68.5342141,3.5760913 68.2211245,3.73893261 C67.8717457,3.30896739 66.8795872,2.93715978 64.928857,2.93715978 C62.3901667,2.93715978 61.1551804,4.58883587 61.1551804,9.21296739 C61.1551804,13.8431152 62.3901667,15.4971978 64.928857,15.4971978 C66.8819036,15.4971978 67.8775365,15.096913 68.2273013,14.6569207 C68.540005,14.8213663 70.4000125,15.7843761 70.933925,16.0647359 C70.2293767,16.6840141 68.1311739,18.2294022 64.7906497,18.2294022 C59.0616102,18.2294022 56.0299291,15.1133576 56.0299291,9.21296739" id="Fill-3"></path>
                <path d="M78.3280149,9.21296739 C78.3280149,13.8354946 79.3379318,15.3002641 81.5843793,15.3002641 C83.8219476,15.3002641 84.7716401,13.897663 84.7716401,9.21296739 C84.7716401,4.53107935 83.8219476,3.13168696 81.5843793,3.13168696 C79.3379318,3.13168696 78.3280149,4.59605543 78.3280149,9.21296739 L78.3280149,9.21296739 Z M73.2073963,9.21296739 C73.2073963,3.57087717 76.3425398,0.200944565 81.5843793,0.200944565 C86.7895437,0.200944565 89.8891726,3.57087717 89.8891726,9.21296739 C89.8922587,14.8602717 86.7895437,18.2294022 81.5843793,18.2294022 C76.3425398,18.2294022 73.2073963,14.8602717 73.2073963,9.21296739 L73.2073963,9.21296739 Z" id="Fill-4" fill-rule="nonzero"></path>
                <path d="M98.9533292,1.48081304 L99.1081368,1.69338913 L99.3227828,1.55260761 C99.3424715,1.53696522 101.456503,0.16083587 104.178568,0.16083587 C106.177169,0.16083587 107.621011,0.567136957 108.465697,1.36690435 L108.601202,1.49485109 L108.766819,1.41302935 C110.49827,0.582779348 112.088426,0.16083587 113.501383,0.16083587 C117.312121,0.16083587 118.670645,1.73229457 118.670645,3.20909674 L118.670645,17.8419522 L113.994374,17.8419522 L113.994374,5.16359348 C113.994374,3.34947717 113.805208,2.82285 112.530844,2.82285 C110.307946,2.82285 109.418092,4.41075326 109.381416,4.47853696 L109.343969,4.54551848 L109.343969,17.8419522 L104.673876,17.8419522 L104.673876,5.16359348 C104.673876,3.34947717 104.483165,2.82285 103.204941,2.82285 C100.980884,2.82285 100.092188,4.41075326 100.055127,4.47853696 L100.018452,4.54551848 L100.018452,17.8419522 L95.3499024,17.8419522 L95.3499024,4.1388163 C95.3499024,2.97085109 94.2419277,1.90476196 93.025858,1.25018804 C94.0021883,0.951378261 96.6184754,0.149204348 96.7725109,0.103480435 C97.3207074,0.33611087 98.579243,0.952982609 98.9533292,1.48081304 Z" id="Fill-5"></path>
                <path d="M4.77818881,2.78554891 L4.77818881,15.4242 C4.77818881,15.4242 5.08896218,15.419788 6.6748715,15.419788 L7.45778876,15.3556141 L7.466668,15.3467902 C9.33787113,14.745962 10.2551351,13.0930826 10.2551351,9.05654348 C10.2551351,5.40023478 9.50734878,3.81674348 7.98127781,2.98248261 C7.51029208,2.84210217 7.09412601,2.78554891 6.6748715,2.78554891 L4.77818881,2.78554891 L4.77818881,2.78554891 Z M4.4408921e-15,1.29674049e-13 C0.526577485,1.29674049e-13 6.52392443,0.00320869565 6.52392443,0.00320869565 C12.5583326,0.00320869565 15.4896396,2.96643913 15.4896396,9.05654348 C15.4896396,15.1955804 12.5583326,18.182475 6.52392443,18.182475 L4.4408921e-15,18.182475 L4.4408921e-15,1.29674049e-13 L4.4408921e-15,1.29674049e-13 Z" id="Fill-7" fill-rule="nonzero"></path>
            </g>
        </g>
    </g>
</svg>